<svg xmlns="http://www.w3.org/2000/svg" viewBox="0 0 1440 520" role="img" aria-labelledby="title desc">
  <title id="title">Forest Agent Dashboard</title>
  <desc id="desc">Original Forest T mark beside an editorial dashboard preview with synthetic notes and signals.</desc>
  <rect width="1440" height="520" fill="#F3F5F3"/>
  <path d="M0 72H1440M0 448H1440" stroke="#D6DDD6"/>
  <g transform="translate(74 92)" fill="#183C2B">
    <rect x="8" y="8" width="160" height="40" rx="20"/>
    <rect x="68" y="38" width="40" height="142" rx="8"/>
    <path d="M206 18V170" stroke="#4E7D5B" stroke-width="3"/>
    <g fill="#F3F5F3" stroke="#4E7D5B" stroke-width="4">
      <circle cx="206" cy="24" r="9"/>
      <circle cx="206" cy="72" r="9"/>
      <circle cx="206" cy="120" r="9"/>
      <circle cx="206" cy="168" r="9"/>
    </g>
  </g>
  <g fill="#17201A" font-family="Inter, ui-sans-serif, system-ui, sans-serif">
    <text x="74" y="338" font-size="56" font-weight="800" letter-spacing="-2">FOREST AGENT</text>
    <text x="74" y="397" font-size="56" font-weight="800" letter-spacing="-2">DASHBOARD</text>
    <text x="76" y="432" fill="#667069" font-size="17">A local-first Obsidian cockpit by Totoro</text>
  </g>
  <g transform="translate(650 58)">
    <rect width="710" height="404" rx="18" fill="#FBFCFA" stroke="#D6DDD6" stroke-width="2"/>
    <g transform="translate(30 30)" font-family="Inter, ui-sans-serif, system-ui, sans-serif">
      <text fill="#667069" font-size="11" font-weight="700" letter-spacing="1.5">WED, JUL 15 · LOCAL VAULT</text>
      <text y="38" fill="#17201A" font-size="28" font-weight="800">Today’s canopy</text>
      <rect y="64" width="650" height="46" rx="8" fill="#F3F5F3" stroke="#D6DDD6"/>
      <circle cx="19" cy="87" r="6" fill="none" stroke="#4E7D5B" stroke-width="2"/>
      <path d="M23 91l5 5" stroke="#4E7D5B" stroke-width="2" stroke-linecap="round"/>
      <text x="40" y="92" fill="#667069" font-size="13">Search note titles and content…</text>
      <g transform="translate(0 136)">
        <text fill="#17201A" font-size="17" font-weight="800">Frequent notes</text>
        <text x="535" fill="#667069" font-size="11" letter-spacing="1">LAST 7 DAYS</text>
        <path d="M0 20H650M0 88H650M0 156H650" stroke="#D6DDD6"/>
        <g font-size="13">
          <text x="0" y="51" fill="#4E7D5B" font-family="ui-monospace, monospace" font-size="10">01</text>
          <text x="40" y="51" fill="#17201A" font-weight="700">学习—Spring Boot 与 FastAPI 对照</text>
          <text x="40" y="70" fill="#667069" font-size="10">Learning / Backend · 2h ago</text>
          <text x="620" y="51" text-anchor="end" fill="#183C2B" font-family="ui-monospace, monospace">12</text>
          <text x="0" y="119" fill="#4E7D5B" font-family="ui-monospace, monospace" font-size="10">02</text>
          <text x="40" y="119" fill="#17201A" font-weight="700">复盘—API 限流与容灾设计</text>
          <text x="40" y="138" fill="#667069" font-size="10">Projects / Architecture · Yesterday</text>
          <text x="620" y="119" text-anchor="end" fill="#183C2B" font-family="ui-monospace, monospace">8</text>
        </g>
      </g>
      <g transform="translate(0 322)">
        <rect width="310" height="44" rx="8" fill="#E9EEE9"/>
        <rect x="326" width="324" height="44" rx="8" fill="#E9EEE9"/>
        <circle cx="22" cy="22" r="6" fill="#4E7D5B"/>
        <text x="40" y="27" fill="#17201A" font-size="12" font-weight="700">Mailroom · 3 unread</text>
        <circle cx="348" cy="22" r="6" fill="#7FA0A0"/>
        <text x="366" y="27" fill="#17201A" font-size="12" font-weight="700">Signals · synced locally</text>
      </g>
    </g>
  </g>
</svg>

