<svg xmlns="http://www.w3.org/2000/svg" lang="en" viewBox="0 0 1440 520" role="img" aria-labelledby="title desc">
  <title id="title">Toworkboard</title>
  <desc id="desc">The Toworkboard T and W Canopy mark beside a local workflow connecting notes, tasks, read-only mail, and engineering signals.</desc>
  <rect width="1440" height="520" fill="#F3F5F3"/>
  <path d="M0 72H1440M0 448H1440" stroke="#D6DDD6"/>

  <g transform="translate(68 78)">
    <g aria-label="Original Toworkboard T and W Canopy mark">
      <path d="M22 76L54 150L91 103L128 150L160 76" fill="none" stroke="#4E7D5B" stroke-width="16" stroke-linecap="round" stroke-linejoin="round"/>
      <rect x="8" y="8" width="166" height="38" rx="19" fill="#183C2B"/>
      <rect x="75" y="38" width="32" height="104" rx="7" fill="#183C2B"/>
      <circle cx="22" cy="76" r="7" fill="#F3F5F3" stroke="#4E7D5B" stroke-width="4"/>
      <circle cx="160" cy="76" r="7" fill="#F3F5F3" stroke="#4E7D5B" stroke-width="4"/>
    </g>

    <g transform="translate(0 214)" font-family="Inter, ui-sans-serif, system-ui, sans-serif">
      <text fill="#17201A" font-size="58" font-weight="800" letter-spacing="-2">TOWORK</text>
      <text x="252" fill="#4E7D5B" font-size="58" font-weight="800" letter-spacing="-2">BOARD</text>
      <text y="48" fill="#59655D" font-size="17">Turn local context into today’s work.</text>
      <g transform="translate(0 82)" font-size="11" font-weight="700">
        <text fill="#183C2B">LOCAL FIRST</text>
        <circle cx="93" cy="-4" r="3" fill="#7FA0A0"/>
        <text x="107" fill="#59655D">READ-ONLY MAIL</text>
        <circle cx="225" cy="-4" r="3" fill="#7FA0A0"/>
        <text x="239" fill="#59655D">NO TELEMETRY</text>
      </g>
    </g>
  </g>

  <g transform="translate(610 48)" font-family="Inter, ui-sans-serif, system-ui, sans-serif">
    <rect width="760" height="424" rx="14" fill="#FBFCFA" stroke="#D6DDD6" stroke-width="2"/>
    <g transform="translate(28 26)">
      <text fill="#59655D" font-size="10" font-weight="700" letter-spacing="1.3">TODAY · LOCAL WORKBOARD</text>
      <g transform="translate(612 -2)">
        <rect width="92" height="25" rx="6" fill="#E9EEE9"/>
        <circle cx="14" cy="12.5" r="4" fill="#4E7D5B"/>
        <text x="26" y="16" fill="#183C2B" font-size="9" font-weight="800">LOCAL ONLY</text>
      </g>

      <g transform="translate(0 42)">
        <rect width="704" height="44" rx="7" fill="#F3F5F3" stroke="#D6DDD6"/>
        <circle cx="18" cy="21" r="6" fill="none" stroke="#4E7D5B" stroke-width="2"/>
        <path d="M22 25l5 5" stroke="#4E7D5B" stroke-width="2" stroke-linecap="round"/>
        <text x="39" y="26" fill="#59655D" font-size="12">Search titles, paths, tags and note content…</text>
        <rect x="650" y="11" width="36" height="22" rx="5" fill="#FBFCFA" stroke="#D6DDD6"/>
        <text x="668" y="26" text-anchor="middle" fill="#59655D" font-size="9" font-family="ui-monospace, monospace">⌘ K</text>
      </g>

      <g transform="translate(0 111)">
        <text fill="#17201A" font-size="17" font-weight="800">From context to action</text>
        <text x="704" text-anchor="end" fill="#59655D" font-size="10" letter-spacing="1">4 SOURCES · 1 BOARD</text>
        <path d="M0 22H704M0 84H704M0 146H704M0 208H704M0 270H704" stroke="#D6DDD6"/>

        <g transform="translate(0 23)">
          <rect y="14" width="5" height="33" rx="2.5" fill="#183C2B"/>
          <text x="20" y="25" fill="#4E7D5B" font-size="9" font-weight="800" font-family="ui-monospace, monospace">NOTE</text>
          <text x="102" y="25" fill="#17201A" font-size="13" font-weight="700">API resilience patterns</text>
          <text x="102" y="43" fill="#59655D" font-size="10">Architecture / Reliability · edited 18m ago</text>
          <text x="680" y="34" text-anchor="end" fill="#183C2B" font-size="10" font-weight="700">OPEN →</text>
        </g>

        <g transform="translate(0 85)">
          <rect y="14" width="5" height="33" rx="2.5" fill="#4E7D5B"/>
          <text x="20" y="25" fill="#4E7D5B" font-size="9" font-weight="800" font-family="ui-monospace, monospace">TASK</text>
          <text x="102" y="25" fill="#17201A" font-size="13" font-weight="700">Draft retry and rate-limit policy</text>
          <text x="102" y="43" fill="#59655D" font-size="10">Linked to API resilience patterns</text>
          <text x="680" y="34" text-anchor="end" fill="#183C2B" font-size="10" font-weight="700">TODAY</text>
        </g>

        <g transform="translate(0 147)">
          <rect y="14" width="5" height="33" rx="2.5" fill="#7FA0A0"/>
          <text x="20" y="25" fill="#4E7D5B" font-size="9" font-weight="800" font-family="ui-monospace, monospace">MAIL</text>
          <text x="102" y="25" fill="#17201A" font-size="13" font-weight="700">Architecture review ready</text>
          <text x="102" y="43" fill="#59655D" font-size="10">Read-only metadata · Sample Team</text>
          <text x="680" y="34" text-anchor="end" fill="#183C2B" font-size="10" font-weight="700">1 UNREAD</text>
        </g>

        <g transform="translate(0 209)">
          <rect y="14" width="5" height="33" rx="2.5" fill="#C66A3D"/>
          <text x="20" y="25" fill="#4E7D5B" font-size="9" font-weight="800" font-family="ui-monospace, monospace">SIGNAL</text>
          <text x="102" y="25" fill="#17201A" font-size="13" font-weight="700">Spring AI release notes</text>
          <text x="102" y="43" fill="#59655D" font-size="10">GitHub / spring-projects · public signal</text>
          <text x="680" y="34" text-anchor="end" fill="#183C2B" font-size="10" font-weight="700">REVIEW</text>
        </g>
      </g>
    </g>
  </g>
</svg>
